PathFileType	4	(X/Y/Z)	TVC_36_BWA_06_walk_RCNL2025.trc
DataRate	CameraRate	NumFrames	NumMarkers	Units	OrigDataRate	OrigDataStartFrame	OrigNumFrames
100	100	11	27	mm	100	90	714
Frame#	Time	R_Shoulder			L_Shoulder			C7			J_Notch			R_Elbow			L_Elbow			R_Wrist			L_Wrist			R_Asis			L_Asis			R_Psis			L_Psis			Sacral			Thoracic			Sternum			R_Thigh_Lateral			R_Knee_Lateral			R_Shank_Lateral			R_Ankle_Lateral			R_Heel			R_Toe			L_Thigh_Lateral			L_Knee_Lateral			L_Shank_Lateral			L_Ankle_Lateral			L_Heel			L_Toe		
		X1	Y1	Z1	X2	Y2	Z2	X3	Y3	Z3	X4	Y4	Z4	X5	Y5	Z5	X6	Y6	Z6	X7	Y7	Z7	X8	Y8	Z8	X9	Y9	Z9	X10	Y10	Z10	X11	Y11	Z11	X12	Y12	Z12	X13	Y13	Z13	X14	Y14	Z14	X15	Y15	Z15	X16	Y16	Z16	X17	Y17	Z17	X18	Y18	Z18	X19	Y19	Z19	X20	Y20	Z20	X21	Y21	Z21	X22	Y22	Z22	X23	Y23	Z23	X24	Y24	Z24	X25	Y25	Z25	X26	Y26	Z26	X27	Y27	Z27
90	0.89000000	-240.017502	1394.940796	518.533203	-356.964630	1389.673828	191.013031	-325.503967	1444.865112	368.603638	-180.852036	1321.795288	322.609100	-248.961945	1108.560913	610.264648	-394.513367	1098.166138	83.300797	-150.542686	909.849548	603.464661	-197.304016	1011.480621	109.128761	-194.253372	898.858093	439.929810	-282.299042	917.034180	186.268585	-373.577454	932.493469	415.804382	-406.629608	929.784607	337.643707	-390.103531	931.139038	376.724045	-370.069519	1154.329346	375.887604	-143.928284	1173.643555	287.721039	-202.355103	636.621704	514.211121	-176.204712	462.179535	426.063538	-226.581696	265.373474	481.298584	-247.583817	69.663528	412.717896	-292.613922	55.213486	361.632111	-122.072388	42.161911	385.031860	-315.601685	681.809509	90.950928	-281.633545	482.774628	130.533051	-368.075714	292.602325	96.106041	-334.878601	76.235802	128.236649	-368.621521	60.901810	181.618393	-203.943237	48.682877	129.101456
91	0.90000000	-238.015762	1395.244629	520.372742	-354.677216	1389.636353	192.836349	-323.316376	1445.039673	370.331665	-178.601440	1322.040283	324.464172	-248.211014	1108.425049	612.051575	-394.449677	1097.972290	86.480438	-148.881813	909.929871	605.277252	-198.916039	1008.471466	114.872787	-191.100357	898.869751	440.890808	-278.907715	917.142334	188.003784	-370.835632	932.339783	417.234772	-403.709381	929.663208	339.033691	-387.272507	931.001495	378.134232	-367.604614	1154.314697	377.431458	-141.422928	1173.933716	289.819031	-200.381851	636.313354	515.331360	-174.913422	461.834747	426.770477	-225.624954	265.010498	481.780396	-247.408356	69.654343	412.699768	-292.474182	55.367607	361.617493	-121.974274	42.084084	384.951111	-312.558563	682.010681	92.201019	-278.904236	482.869507	131.380341	-366.277466	293.119659	97.005959	-334.245972	76.698364	129.197144	-367.936493	61.501091	182.662003	-203.562576	48.639217	129.408676
92	0.91000000	-236.088959	1395.541016	522.175537	-352.363495	1389.578857	194.586472	-321.159271	1445.204224	371.993866	-176.374527	1322.262085	326.306793	-247.969498	1108.203369	613.663452	-394.246582	1097.848633	89.455475	-147.602272	909.955139	606.960205	-200.479935	1005.512634	120.587421	-187.976227	898.891724	441.806488	-275.529755	917.267395	189.724487	-368.130402	932.184814	418.623322	-400.829437	929.556396	340.379852	-384.479919	930.870605	379.501587	-365.172913	1154.291016	378.938965	-138.944061	1174.198242	291.920929	-198.369415	636.031555	516.494507	-173.597153	461.498199	427.513367	-224.678192	264.627899	482.261658	-247.225937	69.640152	412.690094	-292.326904	55.526306	361.606018	-121.875313	42.001514	384.891907	-309.632446	682.245667	93.422707	-276.314606	482.977600	132.228210	-364.573486	293.649567	97.832397	-333.658600	77.174049	130.044739	-367.332397	62.098835	183.565613	-203.251831	48.602707	129.681366
93	0.92000000	-234.219498	1395.831665	523.943115	-350.025299	1389.514282	196.267166	-319.027283	1445.364746	373.598572	-174.169296	1322.465820	328.134155	-248.226593	1107.898682	615.117432	-393.906708	1097.789185	92.249992	-146.697327	909.923370	608.527832	-201.965858	1002.640320	126.215183	-184.886703	898.934021	442.690460	-272.187988	917.419678	191.436920	-365.464661	932.041138	419.981659	-397.997955	929.473816	341.694641	-381.731308	930.757477	380.838150	-362.773621	1154.268066	380.420258	-136.495255	1174.441772	294.016266	-196.345184	635.773010	517.691833	-172.286789	461.172424	428.287811	-223.747421	264.238617	482.729980	-247.044876	69.620300	412.683716	-292.182068	55.681232	361.595520	-121.781013	41.919048	384.848907	-306.776337	682.532410	94.616089	-273.809692	483.119476	133.061951	-362.926239	294.210938	98.579895	-333.093414	77.677292	130.776932	-366.791962	62.721802	184.333298	-202.986740	48.577831	129.920959
94	0.93000000	-232.389328	1396.118652	525.676392	-347.666473	1389.455200	197.883224	-316.914886	1445.526978	375.154144	-171.984192	1322.656250	329.942841	-248.948349	1107.519043	616.437988	-393.434174	1097.787354	94.888565	-146.142052	909.836700	609.999756	-203.340622	999.891998	131.694542	-181.839432	899.004944	443.556519	-268.905304	917.609131	193.146622	-362.842712	931.920044	421.321014	-395.223785	929.424072	342.990173	-379.033249	930.672058	382.155594	-360.406830	1154.255371	381.885223	-134.080856	1174.668457	296.094208	-194.345245	635.532959	518.911621	-171.016525	460.859100	429.087616	-222.848740	263.855591	483.174835	-246.874146	69.594749	412.677155	-292.048859	55.823944	361.584991	-121.696388	41.841763	384.816742	-303.940918	682.888916	95.781097	-271.331940	483.315186	133.864700	-361.291779	294.822357	99.238838	-332.521027	78.222618	131.389297	-366.291138	63.396088	184.965256	-202.734970	48.571121	130.131683
95	0.94000000	-230.580658	1396.403198	527.376160	-345.293274	1389.413940	199.440857	-314.816528	1445.696777	376.668884	-169.818130	1322.837769	331.728882	-250.080368	1107.077393	617.655457	-392.834167	1097.837158	97.394775	-145.899158	909.700653	611.398743	-204.568169	997.305969	136.961609	-178.843613	899.110657	444.418396	-265.703918	917.844727	194.858078	-360.269958	931.831177	422.651855	-392.515839	929.414429	344.277802	-376.392899	930.622803	383.464828	-358.073608	1154.262451	383.343292	-131.705826	1174.881836	298.143646	-192.409866	635.306702	520.141907	-169.821060	460.559784	429.906830	-222.009216	263.489899	483.589355	-246.722183	69.563965	412.670105	-291.934509	55.947399	361.575256	-121.625282	41.773975	384.791901	-301.079803	683.332397	96.917320	-268.824036	483.583618	134.618164	-359.621063	295.501221	99.795403	-331.905914	78.824104	131.874817	-365.799011	64.145264	185.456665	-202.456131	48.591183	130.318817
96	0.95000000	-228.776520	1396.686523	529.042725	-342.914337	1389.402222	200.947723	-312.726990	1445.879150	378.151031	-167.670563	1323.014160	333.488129	-251.551880	1106.590576	618.804749	-392.112549	1097.933716	99.789803	-145.924774	909.523163	612.748322	-205.610481	994.920868	141.952187	-175.909515	899.255554	445.289185	-262.604614	918.134521	196.574524	-357.752472	931.782410	423.983582	-389.882935	929.450378	345.567810	-373.817703	930.616394	384.775696	-355.775879	1154.297729	384.803070	-129.375626	1175.085083	300.153717	-190.578598	635.090637	521.372742	-168.732529	460.276550	430.741364	-221.263916	263.149933	483.971436	-246.596329	69.528473	412.666321	-291.843658	56.047230	361.569366	-121.570198	41.718445	384.774719	-298.153564	683.878479	98.023422	-266.231537	483.941864	135.303345	-357.861877	296.262939	100.231880	-331.206909	79.494766	132.223297	-365.277649	64.988892	185.797043	-202.102356	48.648731	130.486862
97	0.96000000	-226.961304	1396.968872	530.676270	-340.540527	1389.430298	202.412842	-310.641296	1446.078735	379.608551	-165.541565	1323.188477	335.216156	-253.280243	1106.078735	619.923279	-391.275482	1098.072998	102.091194	-146.171909	909.313293	614.071411	-206.428909	992.775055	146.604347	-173.048203	899.441895	446.180817	-259.626129	918.485107	198.297821	-355.296967	931.779663	425.323914	-387.333374	929.535767	346.869141	-371.315170	930.657715	386.096527	-353.516266	1154.368896	386.272308	-127.096016	1175.280518	302.113922	-188.886261	634.883240	522.597473	-167.778046	460.012299	431.590118	-220.649597	262.841949	484.324677	-246.502304	69.488472	412.673767	-291.778442	56.122272	361.573029	-121.532524	41.675991	384.770142	-295.132263	684.540161	99.096680	-263.505310	484.404846	135.901245	-355.960846	297.120148	100.527618	-330.378052	80.246078	132.421219	-364.682556	65.941467	185.970490	-201.619308	48.756603	130.637238
98	0.97000000	-225.121063	1397.250122	532.276978	-338.184418	1389.507446	203.846436	-308.555145	1446.299072	381.049225	-163.431763	1323.363159	336.908722	-255.175156	1105.562744	621.049561	-390.328949	1098.252930	104.311829	-146.591431	909.080292	615.389862	-206.985725	990.905457	150.861115	-170.271103	899.670044	447.103424	-256.784607	918.901611	200.028214	-352.910248	931.826538	426.678772	-384.874634	929.672302	348.188995	-368.892441	930.749420	387.433884	-351.298035	1154.481812	387.757385	-124.872879	1175.470093	304.014709	-187.360519	634.685486	523.813416	-166.978165	459.770966	432.455414	-220.201035	262.569092	484.659454	-246.444016	69.443611	412.703857	-291.738983	56.174294	361.594421	-121.512856	41.645641	384.787628	-291.996735	685.327026	100.132843	-260.603424	484.984955	136.393616	-353.865601	298.082520	100.660133	-329.369354	81.087585	132.451706	-363.963104	67.011642	185.956192	-200.947403	48.929691	130.766571
99	0.98000000	-223.243912	1397.529175	533.845032	-335.859741	1389.641113	205.259445	-306.464874	1446.543091	382.480377	-161.342331	1323.539551	338.561890	-257.143219	1105.063599	622.221375	-389.278534	1098.473145	106.459236	-147.131374	908.833557	616.724701	-207.245949	989.346558	154.673485	-167.589569	899.938171	448.065002	-254.093124	919.387024	201.764297	-350.599152	931.924438	428.051819	-382.513123	929.859741	349.532715	-366.556137	930.892090	388.792267	-349.124847	1154.640747	389.263275	-122.711952	1175.654907	305.847443	-186.020966	634.500488	525.021667	-166.346436	459.557281	433.342621	-219.952423	262.328735	484.991730	-246.423340	69.392960	412.770172	-291.723969	56.207455	361.643616	-121.511330	41.625229	384.839966	-288.738525	686.244629	101.126083	-257.492706	485.691925	136.763596	-351.526733	299.156311	100.606438	-328.127991	82.026604	132.295090	-363.063202	68.201813	185.729599	-200.023209	49.184776	130.865234
100	0.99000000	-221.320190	1397.804199	535.380920	-333.580536	1389.836670	206.663055	-304.367584	1446.812134	383.908691	-159.274902	1323.718384	340.172150	-259.092773	1104.600830	623.473877	-388.128815	1098.734619	108.535210	-147.735905	908.582886	618.096558	-207.179237	988.128937	158.003220	-165.014465	900.242859	449.070923	-251.561478	919.942566	203.502853	-348.370209	932.072571	429.444427	-380.254028	930.095825	350.903687	-364.312119	931.084198	390.174057	-347.000702	1154.848633	390.793243	-120.618652	1175.835449	307.605042	-184.878906	634.333069	526.226501	-165.889374	459.376343	434.259583	-219.938934	262.111603	485.340515	-246.439987	69.334831	412.886505	-291.731262	56.227516	361.731537	-121.528053	41.612068	384.941437	-285.359528	687.294312	102.069382	-254.149246	486.532776	136.996292	-348.899597	300.344421	100.344414	-326.599457	83.068207	131.929520	-361.922394	69.507996	185.263809	-198.781128	49.540298	130.916397
